<?xml version="1.0" standalone="no"?>
<!DOCTYPE svg PUBLIC "-//W3C//DTD SVG 1.1//EN" "http://www.w3.org/Graphics/SVG/1.1/DTD/svg11.dtd" >
<svg xmlns="http://www.w3.org/2000/svg" xmlns:xlink="http://www.w3.org/1999/xlink" version="1.1">
<metadata>
Created by FontForge 20180930 at Mon Oct  8 19:14:21 2018
 By root
Copyright (URW)++, copyright 1999 by (URW)++ Design &#38; Development; Cyrillic glyphs added by Valek Filippov, copyright 2001-2002; Vietnamese characters were added by Han The Thanh; copyright 2006, 2008 for TeX Gyre extensions by B. Jackowski and J.M. Nowacki (on behalf of TeX users groups); Design Modifications and additions added by R. Jablonski, Stig, Mew Too and Jasper at Cannot Into Space Fonts, copyright 2015-2016. This work is released under the GUST Font License --  see http://tug.org/fonts/licenses/GUST-FONT-LICENSE.txt for details.
</metadata>
<defs>
<font id="WarowniaBdExt" horiz-adv-x="580" >
  <font-face 
    font-family="Warownia"
    font-weight="700"
    font-stretch="normal"
    units-per-em="1000"
    panose-1="0 0 8 0 0 0 0 0 0 0"
    ascent="784"
    descent="-216"
    x-height="540"
    cap-height="729"
    bbox="15 -307 1176 962"
    underline-thickness="69"
    underline-position="-120"
    stemh="125"
    stemv="140"
    unicode-range="U+0020-E016"
  />
    <missing-glyph />
    <glyph glyph-name="space" unicode=" " horiz-adv-x="104" 
 />
    <glyph glyph-name="exclam" unicode="!" horiz-adv-x="218" 
d="M31 -5v156h160v-156h-160zM31 726h160l-42 -529h-77z" />
    <glyph glyph-name="quotedbl" unicode="&#x22;" horiz-adv-x="420" 
d="M29 729h154l-48 -269h-64zM241 729h154l-44 -259h-64z" />
    <glyph glyph-name="numbersign" unicode="#" horiz-adv-x="659" 
d="M28 167v109h98l28 143h-98v109h124l39 169h132l-39 -174h107l39 174h123l-34 -171h89v-107h-110l-32 -143h102v-109h-126l-46 -199h-133l46 204h-107l-46 -204h-120l40 199h-76zM255 276h107l32 143h-107z" />
    <glyph glyph-name="dollar" unicode="$" horiz-adv-x="638" 
d="M24 230v5h141v-5c0 -74 61 -115 165 -115c93 0 146 31 146 87c0 55 -33 74 -137 94l-106 20c-143 29 -197 84 -197 199c0 128 74 208 215 224l10 94h113l10 -97c136 -21 209 -100 209 -234v-5h-139v5c0 71 -56 109 -153 109c-77 0 -124 -33 -124 -84
c0 -49 28 -68 138 -89l117 -21c129 -26 184 -82 184 -198c0 -133 -83 -213 -232 -229l-10 -91h-113l-10 91c-147 19 -227 103 -227 240z" />
    <glyph glyph-name="percent" unicode="%" horiz-adv-x="925" 
d="M26 516c0 101 85 185 189 185c106 0 189 -82 189 -186c0 -100 -86 -183 -189 -183c-104 0 -189 83 -189 184zM135 516c0 -42 36 -76 80 -76c43 0 80 35 80 76c0 43 -36 76 -80 76s-80 -35 -80 -76zM191 -20l401 729h133l-416 -729h-118zM499 170c0 103 85 187 201 187
c118 0 201 -83 201 -190c0 -101 -86 -185 -201 -185c-116 0 -201 84 -201 188zM608 169c0 -43 41 -79 92 -79c49 0 92 36 92 78c0 44 -41 80 -92 80s-92 -36 -92 -79z" />
    <glyph glyph-name="ampersand" unicode="&#x26;" horiz-adv-x="748" 
d="M28 198c0 95 40 150 155 210c-6 7 -7 7 -9 9v1l-28 34c-29 34 -44 71 -43 109c0 97 88 172 213 172s210 -64 210 -160c0 -73 -34 -118 -132 -177l124 -134c22 38 30 66 30 106v15h123v-21c0 -76 -30 -156 -66 -203l127 -159h-173l-51 54c-92 -59 -146 -77 -224 -77
c-159 0 -256 88 -256 221zM171 215c0 -58 57 -112 116 -112c32 0 81 18 130 51l-150 163l-49 -26c-30 -16 -47 -46 -47 -76zM256 566c0 -23 3 -30 58 -90c43 21 62 48 62 80c0 35 -21 53 -59 53c-37 0 -61 -18 -61 -43z" />
    <glyph glyph-name="quotesingle" unicode="'" horiz-adv-x="203" 
d="M29 729h150l-44 -269h-64z" />
    <glyph glyph-name="parenleft" unicode="(" horiz-adv-x="321" 
d="M28 265c0 152 49 290 164 462l1 2h111l-4 -7c-106 -202 -139 -313 -139 -457c0 -145 33 -254 139 -458l4 -7h-111l-1 2c-115 172 -164 310 -164 463z" />
    <glyph glyph-name="parenright" unicode=")" horiz-adv-x="322" 
d="M21 -200l4 7c106 202 139 313 139 457c0 145 -33 254 -139 458l-4 7h111l1 -2c115 -172 164 -310 164 -463c0 -152 -49 -290 -164 -462l-1 -2h-111z" />
    <glyph glyph-name="asterisk" unicode="*" horiz-adv-x="410" 
d="M25 577l25 76l109 -34v110h94v-110l109 34l25 -77l-107 -33l66 -89l-66 -49l-74 92l-74 -92l-66 49l66 89z" />
    <glyph glyph-name="plus" unicode="+" horiz-adv-x="558" 
d="M34 195v110h192v182h110v-182h191v-110h-191v-182h-110v182h-192z" />
    <glyph glyph-name="comma" unicode="," horiz-adv-x="228" 
d="M37 -10v156h160v-142c0 -73 -15 -110 -56 -140c-30 -24 -59 -31 -104 -39v66c34 9 77 43 77 74c0 13 -16 25 -72 25h-5z" />
    <glyph glyph-name="hyphen" unicode="-" horiz-adv-x="356" 
d="M39 202v145h282v-145h-282z" />
    <glyph glyph-name="period" unicode="." horiz-adv-x="230" 
d="M38 -10v156h160v-156h-160z" />
    <glyph glyph-name="slash" unicode="/" horiz-adv-x="360" 
d="M22 -24l209 738h108l-209 -738h-108z" />
    <glyph glyph-name="zero" unicode="0" horiz-adv-x="584" 
d="M30 352c0 204 42 372 264 372c228 0 264 -175 264 -376c0 -281 -102 -367 -264 -367c-225 0 -264 173 -264 371zM180 353c0 -211 37 -242 114 -242c80 0 114 40 114 240c0 220 -39 250 -114 250c-80 0 -114 -41 -114 -248z" />
    <glyph glyph-name="one" unicode="1" horiz-adv-x="379" 
d="M25 508v63l218 138h102v-719h-150v518h-170z" />
    <glyph glyph-name="two" unicode="2" horiz-adv-x="583" 
d="M25 -5c0 260 378 419 379 496c1 51 -42 86 -90 91c-54 6 -116 -27 -130 -126l-1 -4h-148v5c1 57 36 267 256 267c170 0 269 -90 268 -230c-1 -131 -297 -321 -329 -369h326v-135h-531v5z" />
    <glyph glyph-name="three" unicode="3" horiz-adv-x="577" 
d="M26 222v5h146v-5c0 -71 45 -106 117 -106c67 0 115 43 115 102c0 72 -58 101 -178 101h-5v104h19c94 0 137 26 137 92c0 55 -34 86 -95 86c-76 0 -106 -33 -106 -120v-5h-141v17c0 157 96 231 250 231s246 -76 246 -196c0 -64 -27 -102 -88 -141c76 -39 111 -87 111 -169
c0 -141 -101 -232 -269 -232c-162 0 -259 91 -259 236z" />
    <glyph glyph-name="four" unicode="4" horiz-adv-x="586" 
d="M29 152v123l253 434h205v-431h74v-126h-74v-157h-150v157h-308zM178 278h159v277z" />
    <glyph glyph-name="five" unicode="5" horiz-adv-x="585" 
d="M25 199v5h153v-5c0 -54 38 -83 106 -83c77 0 126 41 126 122c0 84 -48 125 -126 125c-171 0 -231 -53 -231 -53l-10 -9l66 408h423v-135h-320l-13 -90h123c145 0 238 -96 238 -243c0 -156 -107 -255 -278 -255c-158 0 -257 86 -257 213z" />
    <glyph glyph-name="six" unicode="6" horiz-adv-x="582" 
d="M30 337c0 253 92 387 285 387c131 0 213 -61 231 -180l1 -6h-140l-3 3c-20 44 -45 60 -94 60c-92 0 -121 -54 -129 -184c48 40 93 55 156 55c135 0 221 -90 221 -228c0 -156 -98 -258 -257 -258c-98 0 -177 32 -219 100c-37 58 -52 129 -52 251zM178 232
c0 -73 48 -116 118 -116c68 0 119 45 119 119c0 76 -46 117 -117 117s-120 -44 -120 -120z" />
    <glyph glyph-name="seven" unicode="7" horiz-adv-x="606" 
d="M30 574v135h549v-117c-176 -204 -274 -598 -275 -602h-171l1 6s103 390 277 578h-381z" />
    <glyph glyph-name="eight" unicode="8" horiz-adv-x="596" 
d="M28 206c0 83 35 132 111 175c-60 35 -87 78 -87 145c0 115 99 198 249 198c149 0 248 -83 248 -197c0 -69 -29 -112 -87 -146c77 -43 111 -92 111 -175c0 -137 -106 -225 -272 -225c-167 0 -273 88 -273 225zM178 219c0 -67 46 -103 122 -103s123 36 123 101
c0 71 -46 108 -123 108c-75 0 -122 -37 -122 -106zM186 516c0 -50 47 -86 116 -86c68 0 115 36 115 85c-1 51 -45 86 -115 86s-116 -36 -116 -85z" />
    <glyph glyph-name="nine" unicode="9" horiz-adv-x="584" 
d="M26 480c0 149 99 244 263 244c163 0 269 -93 269 -340c0 -251 -84 -398 -283 -398c-141 0 -236 82 -239 194v5h151v-5c3 -39 39 -64 93 -64c83 0 125 58 128 183c-50 -48 -81 -61 -150 -61c-144 0 -232 95 -232 242zM173 482c0 -78 44 -118 114 -118s118 42 118 116
c0 79 -46 120 -121 120c-68 0 -111 -39 -111 -118z" />
    <glyph glyph-name="colon" unicode=":" horiz-adv-x="230" 
d="M38 -5v156h160v-156h-160zM38 369v156h160v-156h-160z" />
    <glyph glyph-name="semicolon" unicode=";" horiz-adv-x="229" 
d="M37 -5v156h160v-140c0 -77 -15 -115 -56 -147c-30 -24 -59 -31 -104 -39v66c34 9 77 43 77 74c0 15 -16 30 -72 30h-5zM37 369v156h160v-156h-160z" />
    <glyph glyph-name="less" unicode="&#x3c;" horiz-adv-x="464" 
d="M28 210v80l408 322v-143l-285 -219l285 -219v-143z" />
    <glyph glyph-name="equal" unicode="=" horiz-adv-x="583" 
d="M39 104v110h509v-110h-509zM39 286v110h509v-110h-509z" />
    <glyph glyph-name="greater" unicode="&#x3e;" horiz-adv-x="463" 
d="M31 31l285 219l-285 219v143l408 -322v-80l-408 -322v143z" />
    <glyph glyph-name="question" unicode="?" horiz-adv-x="570" 
d="M25 471v5c0 184 101 268 257 268c159 0 264 -96 264 -235c0 -86 -28 -132 -122 -198c-69 -42 -75 -50 -75 -115v-5h-134v19c0 76 25 124 101 188c63 49 75 64 75 108c0 63 -49 110 -106 110c-60 0 -110 -54 -110 -129v-16h-150zM204 -5v156h164v-156h-164z" />
    <glyph glyph-name="at" unicode="@" horiz-adv-x="1063" 
d="M26 258c0 261 242 483 535 483c271 0 479 -169 479 -375c0 -152 -187 -322 -353 -322c-57 0 -97 21 -115 58c-42 -37 -82 -53 -129 -53c-101 0 -178 85 -178 197c0 150 108 288 269 288c54 0 99 -20 131 -56l12 36h139l-86 -297v-1c-52 -21 -55 -35 -55 -42
c0 -12 13 -23 29 -23c72 0 212 100 212 203c0 149 -169 274 -370 274c-215 0 -399 -165 -399 -355c0 -172 166 -303 361 -303c50 0 108 10 200 33l40 -99c-85 -34 -171 -48 -245 -48c-259 0 -477 178 -477 402zM382 245c0 -54 35 -95 76 -95c73 0 145 102 151 210v5
c0 39 -34 68 -81 68c-82 0 -146 -89 -146 -188z" />
    <glyph glyph-name="A" unicode="A" horiz-adv-x="785" 
d="M21 0l276 729h201l268 -729h-165l-55 147h-305l-56 -147h-164zM293 277h202l-101 264z" />
    <glyph glyph-name="B" unicode="B" horiz-adv-x="696" 
d="M36 0v729h355c167 0 257 -89 257 -194c0 -61 -29 -104 -96 -148c78 -47 120 -104 120 -175c0 -121 -89 -212 -277 -212h-359zM196 135h200c82 0 122 31 122 87c0 57 -40 87 -122 87h-200v-174zM196 444h181c78 0 117 27 117 75c0 49 -39 75 -117 75h-181v-150z" />
    <glyph glyph-name="C" unicode="C" horiz-adv-x="755" 
d="M29 364c0 235 130 377 366 377c189 0 319 -93 332 -264v-5h-152c-27 94 -81 131 -175 131c-131 0 -211 -85 -211 -241c0 -154 77 -238 206 -238c105 0 169 40 179 130v5h156v-5c-9 -170 -133 -266 -340 -266c-232 0 -361 143 -361 376z" />
    <glyph glyph-name="D" unicode="D" horiz-adv-x="721" 
d="M36 0v729h309c130 0 209 -25 259 -85c59 -69 90 -168 90 -279c0 -112 -32 -211 -90 -279c-51 -60 -130 -86 -259 -86h-309zM196 135h149c125 0 189 73 189 229c0 157 -64 230 -189 230h-149v-459z" />
    <glyph glyph-name="E" unicode="E" horiz-adv-x="620" 
d="M36 0v729h557v-135h-397v-150h377v-135h-377v-174h397v-135h-557z" />
    <glyph glyph-name="F" unicode="F" horiz-adv-x="598" 
d="M36 0v729h540v-135h-380v-150h360v-135h-360v-309h-160z" />
    <glyph glyph-name="G" unicode="G" horiz-adv-x="795" 
d="M28 365c0 226 144 376 387 376c205 0 331 -96 349 -249l1 -6h-153c-32 84 -101 117 -196 117c-143 0 -228 -84 -228 -236c0 -145 97 -241 233 -241c123 0 192 55 206 138h-190v133h327v-197c0 -144 -164 -212 -362 -212c-228 0 -374 157 -374 377z" />
    <glyph glyph-name="H" unicode="H" horiz-adv-x="710" 
d="M36 0v729h160v-293h320v293h160v-729h-160v301h-320v-301h-160z" />
    <glyph glyph-name="I" unicode="I" horiz-adv-x="230" 
d="M36 0v729h160v-729h-160z" />
    <glyph glyph-name="J" unicode="J" horiz-adv-x="561" 
d="M26 214v5l166 2v-5c0 -65 26 -90 88 -90c56 0 87 27 87 79v524h160v-526c0 -137 -88 -215 -251 -215c-155 0 -250 78 -250 226z" />
    <glyph glyph-name="K" unicode="K" horiz-adv-x="753" 
d="M36 0v729h160v-312l319 312h195l-315 -315l345 -414h-192l-272 319l-80 -72v-247h-160z" />
    <glyph glyph-name="L" unicode="L" horiz-adv-x="605" 
d="M36 0v729h160v-594h383v-135h-543z" />
    <glyph glyph-name="M" unicode="M" horiz-adv-x="850" 
d="M36 0v729h244l135 -512l154 512h247v-729h-160v480l-162 -480h-158l-140 481v-481h-160z" />
    <glyph glyph-name="N" unicode="N" horiz-adv-x="715" 
d="M36 0v729h162l323 -450v450h160v-729h-158l-327 458v-458h-160z" />
    <glyph glyph-name="O" unicode="O" horiz-adv-x="826" 
d="M28 365c0 208 138 376 384 376s386 -162 386 -381c0 -212 -141 -372 -385 -372c-246 0 -385 160 -385 377zM188 365c0 -148 89 -239 225 -239c135 0 225 91 225 235c0 147 -88 242 -225 242c-136 0 -225 -96 -225 -238z" />
    <glyph glyph-name="P" unicode="P" horiz-adv-x="666" 
d="M36 0v729h352c166 0 252 -82 252 -229c0 -149 -88 -245 -235 -245h-209v-255h-160zM196 390h155c90 0 129 32 129 102c0 71 -39 102 -129 102h-155v-204z" />
    <glyph glyph-name="Q" unicode="Q" horiz-adv-x="826" 
d="M28 365c0 218 140 376 385 376s385 -160 385 -374c0 -96 -30 -189 -78 -249l82 -77l-89 -42l-83 38c-68 -35 -131 -49 -217 -49c-244 0 -385 159 -385 377zM188 365c0 -148 89 -239 224 -239c32 0 67 6 91 15l-89 71l97 43l93 -34c24 42 34 87 34 143
c0 144 -88 239 -225 239c-136 0 -225 -90 -225 -238z" />
    <glyph glyph-name="R" unicode="R" horiz-adv-x="693" 
d="M36 0v721h302c184 0 298 -64 298 -217c0 -110 -69 -163 -113 -180c59 -34 86 -101 101 -166l11 -47c7 -34 19 -75 39 -95v-16h-158c-28 25 -38 70 -52 105l-27 68c-13 31 -48 94 -119 94h-128v-267h-154zM190 392h147c90 0 142 31 142 98s-51 102 -141 102h-148v-200z
" />
    <glyph glyph-name="S" unicode="S" horiz-adv-x="714" 
d="M25 234v5h162v-5c0 -74 67 -116 183 -116c104 0 163 31 163 87c0 54 -38 73 -153 93l-124 20c-157 29 -218 83 -218 198c0 143 104 225 300 225c207 0 321 -82 321 -239v-5h-158v5c0 70 -63 109 -171 109c-87 0 -139 -34 -139 -84c0 -48 31 -67 154 -88l131 -22
c148 -26 209 -81 211 -197c0 -149 -115 -232 -327 -232c-215 0 -335 87 -335 246z" />
    <glyph glyph-name="T" unicode="T" horiz-adv-x="673" 
d="M26 594v135h624v-135h-227v-594h-160v594h-237z" />
    <glyph glyph-name="U" unicode="U" horiz-adv-x="695" 
d="M33 247v482h160v-480c0 -84 48 -123 154 -123s155 39 155 123v480h160v-482c0 -173 -126 -259 -315 -259s-314 86 -314 259z" />
    <glyph glyph-name="V" unicode="V" horiz-adv-x="736" 
d="M21 729h168l171 -536l189 536h168l-293 -729h-135z" />
    <glyph glyph-name="W" unicode="W" horiz-adv-x="1007" 
d="M21 729h170l109 -479l114 479h180l120 -480l105 480h170l-205 -729h-143l-136 504l-132 -504h-143z" />
    <glyph glyph-name="X" unicode="X" horiz-adv-x="725" 
d="M18 0l240 367l-232 362h192l144 -235l151 235h186l-235 -357l244 -372h-190l-157 248l-157 -248h-186z" />
    <glyph glyph-name="Y" unicode="Y" horiz-adv-x="736" 
d="M20 729h186l168 -315l157 315h187l-275 -459v-270h-160v270z" />
    <glyph glyph-name="Z" unicode="Z" horiz-adv-x="663" 
d="M31 0v130l405 464h-405v135h606v-130l-404 -464h404v-135h-606z" />
    <glyph glyph-name="bracketleft" unicode="[" horiz-adv-x="313" 
d="M37 -200v929h252v-112h-112v-705h112v-112h-252z" />
    <glyph glyph-name="backslash" unicode="\" horiz-adv-x="403" 
d="M23 714h108l253 -738h-108z" />
    <glyph glyph-name="bracketright" unicode="]" horiz-adv-x="316" 
d="M29 -88h112v705h-112v112h252v-929h-252v112z" />
    <glyph glyph-name="asciicircum" unicode="^" horiz-adv-x="554" 
d="M23 270l176 425h151l183 -425h-123l-136 288l-129 -288h-122z" />
    <glyph glyph-name="underscore" unicode="_" horiz-adv-x="746" 
d="M43 -110h665v-79h-665v79z" />
    <glyph glyph-name="grave" unicode="`" horiz-adv-x="294" 
d="M23 752h170l75 -164h-110z" />
    <glyph glyph-name="a" unicode="a" 
d="M26 147c0 98 55 146 165 165l65 9c83 12 124 6 124 57c0 31 -26 48 -87 48c-78 0 -101 -16 -109 -70l-1 -4h-145v5c9 128 88 192 251 192c159 0 238 -57 238 -168v-295c0 -26 6 -39 30 -61l2 -1v-24h-159c-14 14 -18 37 -19 61c-55 -46 -116 -70 -183 -70
c-95 0 -172 50 -172 156zM176 167c0 -36 29 -53 82 -53c78 0 122 43 122 122v16c-14 -6 -25 -8 -61 -14l-55 -9c-67 -11 -88 -24 -88 -62z" />
    <glyph glyph-name="b" unicode="b" horiz-adv-x="624" 
d="M37 0v729h150v-248c40 47 94 68 165 68c158 0 245 -134 245 -286c0 -162 -101 -272 -245 -272c-74 0 -126 22 -165 62v-53h-150zM187 272c0 -98 53 -154 130 -154c75 0 130 57 130 151c0 96 -55 153 -130 153c-76 0 -130 -56 -130 -150z" />
    <glyph glyph-name="c" unicode="c" horiz-adv-x="588" 
d="M30 266c0 183 96 283 276 283c155 0 246 -82 256 -216v-5h-146c-20 71 -45 98 -111 98c-97 0 -125 -64 -125 -160c0 -101 48 -152 125 -152c62 0 90 27 111 83h147l-1 -6c-13 -118 -107 -200 -258 -200c-179 0 -274 98 -274 275z" />
    <glyph glyph-name="d" unicode="d" horiz-adv-x="623" 
d="M29 269c0 162 99 280 244 280c72 0 127 -22 166 -68v248h150v-729h-150v53c-40 -40 -94 -62 -166 -62c-159 0 -244 126 -244 278zM179 269c0 -95 54 -151 130 -151s130 55 130 149c0 99 -53 155 -130 155c-76 0 -130 -57 -130 -153z" />
    <glyph glyph-name="e" unicode="e" horiz-adv-x="607" 
d="M30 263c0 180 97 286 271 286c183 0 278 -120 278 -316v-5h-399c6 -96 52 -120 123 -120c61 0 107 15 118 54h154l-2 -6c-32 -109 -136 -165 -276 -165c-171 0 -267 100 -267 272zM183 326h234c-9 71 -55 106 -119 106c-67 0 -103 -36 -115 -106z" />
    <glyph glyph-name="f" unicode="f" horiz-adv-x="360" 
d="M25 429v101h76v59c0 93 48 140 143 140c19 0 54 -1 80 -3h5v-116c-13 2 -31 4 -45 4c-23 0 -33 -11 -33 -37v-47h83v-101h-83v-429h-150v429h-76z" />
    <glyph glyph-name="g" unicode="g" horiz-adv-x="614" 
d="M29 264c0 166 97 285 241 285c68 0 120 -26 166 -81v72h143v-553c0 -130 -97 -205 -279 -205c-165 0 -258 66 -260 158v5h156c12 -41 46 -63 109 -63c78 0 131 43 131 105v68c-58 -47 -100 -64 -170 -64c-147 0 -237 106 -237 273zM179 266c0 -94 52 -148 123 -148
c80 0 136 55 136 148c0 95 -58 156 -134 156c-74 0 -125 -58 -125 -156z" />
    <glyph glyph-name="h" unicode="h" 
d="M36 0v729h150v-256c45 52 101 76 176 76c109 0 185 -63 185 -189v-360h-150v327c0 69 -39 93 -93 93c-69 0 -118 -41 -118 -99v-321h-150z" />
    <glyph glyph-name="i" unicode="i" horiz-adv-x="220" 
d="M36 0v540h150v-540h-150zM38 595v150h150v-150h-150z" />
    <glyph glyph-name="j" unicode="j" horiz-adv-x="275" 
d="M23 -89c10 -3 20 -6 30 -6c28 0 36 8 36 37v598h150v-629c0 -90 -39 -129 -128 -129c-20 0 -56 2 -84 5l-4 1v123zM89 595v150h150v-150h-150z" />
    <glyph glyph-name="k" unicode="k" 
d="M36 0v729h150v-390l195 201h173l-192 -206l203 -334h-176l-146 234l-57 -54v-180h-150z" />
    <glyph glyph-name="l" unicode="l" horiz-adv-x="220" 
d="M36 0v729h150v-729h-150z" />
    <glyph glyph-name="m" unicode="m" horiz-adv-x="891" 
d="M36 0v540h149v-59c50 49 96 68 164 68c69 0 123 -28 151 -76c46 54 100 76 177 76c114 0 181 -63 181 -169v-380h-150v357c0 39 -29 63 -81 63c-66 0 -105 -37 -105 -99v-321h-150v357c0 39 -30 63 -82 63c-66 0 -104 -37 -104 -99v-321h-150z" />
    <glyph glyph-name="n" unicode="n" horiz-adv-x="590" 
d="M36 0v540h150v-67c46 53 101 76 180 76c123 0 192 -70 192 -189v-360h-150v330c0 61 -32 90 -98 90c-76 0 -124 -39 -124 -99v-321h-150z" />
    <glyph glyph-name="o" unicode="o" horiz-adv-x="638" 
d="M30 270c0 176 103 279 289 279c190 0 291 -101 291 -283c0 -172 -105 -275 -290 -275c-187 0 -290 102 -290 279zM180 270c0 -98 57 -156 140 -156c82 0 140 58 140 154c0 101 -56 158 -140 158c-83 0 -140 -58 -140 -156z" />
    <glyph glyph-name="p" unicode="p" horiz-adv-x="623" 
d="M36 -218v758h150v-67c40 52 94 76 166 76c157 0 244 -120 244 -279c0 -163 -99 -279 -244 -279c-72 0 -127 19 -166 68v-277h-150zM186 270c0 -96 54 -152 130 -152c75 0 130 56 130 150c0 98 -53 154 -130 154c-76 0 -130 -56 -130 -152z" />
    <glyph glyph-name="q" unicode="q" horiz-adv-x="623" 
d="M29 270c0 164 98 279 243 279c72 0 129 -26 167 -76v67h150v-758h-150v277c-40 -50 -96 -68 -168 -68c-154 0 -242 118 -242 279zM179 270c0 -96 54 -152 130 -152s130 55 130 149c0 100 -53 155 -130 155c-76 0 -130 -56 -130 -152z" />
    <glyph glyph-name="r" unicode="r" horiz-adv-x="380" 
d="M36 0v540h150v-35c51 34 84 44 145 44c4 0 16 0 22 -2v-152c-19 3 -34 5 -49 5c-80 0 -118 -51 -118 -92v-308h-150z" />
    <glyph glyph-name="s" unicode="s" horiz-adv-x="592" 
d="M25 176v5h150l1 -4c13 -55 49 -66 121 -66c76 0 114 13 114 40c0 11 -9 21 -49 32l-196 50c-101 31 -122 69 -122 135c0 112 89 181 242 181c172 0 262 -71 264 -188v-5h-152v5c-1 46 -36 68 -114 68c-57 0 -90 -19 -90 -44c0 -19 8 -25 54 -36l207 -50
c73 -21 110 -68 110 -131v-7c0 -110 -88 -170 -259 -170c-186 0 -277 63 -281 185z" />
    <glyph glyph-name="t" unicode="t" horiz-adv-x="350" 
d="M25 430v101h69v143h150v-142h78v-102h-78v-272c0 -46 7 -53 41 -53c10 0 24 2 37 4v-109h-5c-25 -1 -50 -4 -81 -4c-94 0 -142 36 -142 123v311h-69z" />
    <glyph glyph-name="u" unicode="u" horiz-adv-x="590" 
d="M33 180v360h150v-330c0 -61 32 -90 98 -90c76 0 124 39 124 99v321h150v-540h-150v62c-46 -47 -101 -71 -180 -71c-123 0 -192 70 -192 189z" />
    <glyph glyph-name="v" unicode="v" horiz-adv-x="620" 
d="M21 540h165l118 -382l132 382h165l-223 -540h-154z" />
    <glyph glyph-name="w" unicode="w" horiz-adv-x="840" 
d="M22 540h156l82 -335l79 335h170l78 -334l78 334h156l-156 -540h-153l-89 337l-94 -337h-152z" />
    <glyph glyph-name="x" unicode="x" horiz-adv-x="599" 
d="M18 0l184 272l-180 268h181l98 -157l96 157h181l-180 -268l184 -272h-180l-101 163l-103 -163h-180z" />
    <glyph glyph-name="y" unicode="y" horiz-adv-x="628" 
d="M21 540h171l133 -380l124 380h160l-239 -636c-44 -105 -104 -123 -213 -123c-19 0 -37 0 -57 5v116c16 -5 31 -8 42 -8c53 0 94 37 94 85v2z" />
    <glyph glyph-name="z" unicode="z" horiz-adv-x="545" 
d="M29 0v117l282 300h-264v123h462v-118l-281 -301h290v-121h-489z" />
    <glyph glyph-name="braceleft" unicode="{" horiz-adv-x="341" 
d="M25 219v101h21c43 0 60 18 60 57v209c0 83 53 143 128 143h81v-109h-42c-28 0 -40 -13 -40 -51v-192c0 -65 -20 -95 -76 -108c57 -14 76 -44 76 -108v-192c0 -48 9 -60 40 -60h42v-109h-81c-75 0 -128 61 -128 145v206c0 52 -10 66 -72 66h-1z" />
    <glyph glyph-name="bar" unicode="|" horiz-adv-x="205" 
d="M37 -200v929h134v-929h-134z" />
    <glyph glyph-name="braceright" unicode="}" horiz-adv-x="341" 
d="M29 -91h42c28 0 40 13 40 52v192c0 65 20 95 76 108c-57 14 -76 44 -76 108v192c0 48 -9 59 -40 59h-42v109h81c75 0 128 -60 128 -143v-208c0 -52 10 -66 72 -66h1l8 -2v-101h-21c-43 -1 -60 -17 -60 -57v-207c0 -84 -53 -145 -128 -145h-81v109z" />
    <glyph glyph-name="asciitilde" unicode="~" horiz-adv-x="578" 
d="M34 164v5c5 99 50 150 139 150c38 0 70 -8 99 -26l66 -42c30 -19 43 -24 66 -24c38 0 53 8 55 61v5h88v-5c-6 -99 -48 -151 -138 -151c-38 0 -69 7 -99 27l-66 42c-26 17 -43 23 -66 23c-38 0 -54 -9 -56 -60v-5h-88z" />
    <glyph glyph-name="uni00A0" unicode="&#xa0;" horiz-adv-x="104" 
 />
    <glyph glyph-name="exclamdown" unicode="&#xa1;" horiz-adv-x="221" 
d="M32 -186l41 529h77l42 -529h-160zM32 384v156h160v-156h-160z" />
    <glyph glyph-name="cent" unicode="&#xa2;" horiz-adv-x="557" 
d="M28 264c0 172 79 276 234 293v87h54v-85c124 -5 211 -92 219 -216v-5h-143l-1 4c-12 59 -35 84 -75 92v-332c42 8 61 37 76 95h143v-5c-11 -121 -101 -208 -219 -215v-101h-54v102c-151 12 -234 120 -234 286zM178 260c0 -89 31 -141 84 -159v325
c-54 -16 -84 -72 -84 -166z" />
    <glyph glyph-name="sterling" unicode="&#xa3;" horiz-adv-x="598" 
d="M23 351l71 22c-43 74 -51 96 -51 140c0 112 95 202 244 202c179 0 259 -74 273 -236v-5h-148l-1 15c-13 83 -61 105 -123 105c-56 0 -94 -35 -94 -84c0 -19 2 -25 26 -73c16 -32 24 -48 29 -61h163l-53 -63l-86 -12c10 -21 10 -24 10 -42c0 -52 -26 -94 -88 -147
c37 16 55 21 79 21c14 0 105 -21 145 -21c36 0 76 9 113 31l44 -118c-53 -35 -103 -48 -156 -48c-40 0 -181 32 -215 32c-37 0 -63 -7 -107 -29l-4 -3l-60 108l4 2c84 56 108 90 108 145c0 24 -1 31 -16 67h-90z" />
    <glyph glyph-name="currency" unicode="&#xa4;" horiz-adv-x="649" 
d="M23 142l99 99c-19 32 -30 71 -30 116c0 43 14 87 30 114l-99 99l73 73l99 -99c34 19 80 32 131 32c52 0 99 -14 130 -32l99 99l73 -73l-99 -99c19 -30 32 -71 32 -114c0 -45 -14 -87 -32 -116l99 -99l-73 -73l-99 99c-32 -19 -78 -32 -130 -32c-51 0 -98 14 -131 32
l-99 -99zM214 357c0 -61 44 -108 112 -108s113 47 113 108s-45 106 -113 106s-112 -45 -112 -106z" />
    <glyph glyph-name="yen" unicode="&#xa5;" horiz-adv-x="631" 
d="M21 704h155l146 -248l139 248h150l-203 -349h145v-68h-154v-43h154v-69h-154v-180h-150v180h-159v69h159v43h-159v69h146z" />
    <glyph glyph-name="brokenbar" unicode="&#xa6;" horiz-adv-x="179" 
d="M37 182h110v-382h-110v382zM37 347v382h110v-382h-110z" />
    <glyph glyph-name="section" unicode="&#xa7;" horiz-adv-x="578" 
d="M25 286c0 61 21 96 89 148c-46 47 -58 70 -58 122c0 103 92 177 232 177c146 0 218 -61 223 -184v-5h-144l-1 4c-8 51 -33 73 -84 73c-41 0 -68 -19 -68 -46c0 -25 18 -42 100 -81l142 -70c67 -38 100 -88 100 -157c0 -66 -27 -108 -89 -139c45 -34 65 -77 65 -133
c0 -117 -91 -196 -241 -196c-159 0 -233 70 -234 206v5h148v-15c5 -62 38 -75 87 -75s82 24 82 56c0 31 2 36 -77 74l-191 100c-52 31 -81 79 -81 136zM154 317c0 -29 13 -44 58 -66l167 -78c38 24 47 39 47 59c0 30 -13 45 -67 70l-162 74c-32 -17 -43 -33 -43 -59z" />
    <glyph glyph-name="dieresis" unicode="&#xa8;" horiz-adv-x="412" 
d="M36 608v125h138v-125h-138zM242 608v125h138v-125h-138z" />
    <glyph glyph-name="copyright" unicode="&#xa9;" horiz-adv-x="812" 
d="M28 340c0 195 171 354 379 354s380 -159 380 -354s-172 -353 -380 -353s-379 158 -379 353zM97 340c0 -157 141 -284 310 -284c170 0 311 127 311 284s-141 285 -311 285c-169 0 -310 -128 -310 -285zM200 339c0 128 79 206 215 206c114 0 192 -55 196 -153v-5h-104
c-13 48 -38 67 -89 67c-68 0 -107 -41 -107 -116c0 -74 38 -114 104 -114c55 0 88 19 90 64v5h108v-5c-2 -98 -77 -154 -201 -154c-135 0 -212 78 -212 205z" />
    <glyph glyph-name="ordfeminine" unicode="&#xaa;" horiz-adv-x="363" 
d="M30 489c0 58 32 90 99 102l34 5c67 11 63 16 63 31s-13 24 -44 24c-39 0 -50 -10 -54 -40l-1 -4h-87v5c1 77 50 117 140 117c89 0 138 -34 138 -101v-173c0 -18 5 -23 20 -38v-17h-99c-7 7 -11 18 -12 26c-28 -27 -60 -40 -94 -40c-62 0 -103 41 -103 103zM36 262v88h294
v-88h-294zM124 498c0 -21 14 -34 41 -34c39 0 61 25 61 71v15c-7 -3 -13 -4 -29 -7l-29 -6c-34 -7 -44 -17 -44 -39z" />
    <glyph glyph-name="guillemotleft" unicode="&#xab;" horiz-adv-x="480" 
d="M34 216v118l186 154v-126l-106 -87l106 -87v-123zM261 216v118l186 154v-126l-98 -87l98 -87v-123z" />
    <glyph glyph-name="logicalnot" unicode="&#xac;" horiz-adv-x="582" 
d="M37 286v110h510v-242h-110v132h-400z" />
    <glyph glyph-name="uni00AD" unicode="&#xad;" horiz-adv-x="356" 
d="M39 202v145h282v-145h-282z" />
    <glyph glyph-name="registered" unicode="&#xae;" horiz-adv-x="811" 
d="M28 340c0 195 171 354 379 354c207 0 380 -159 380 -354c-18 -195 -178 -353 -374 -353c-197 0 -354 158 -385 353zM97 340c31 -157 157 -284 316 -284c158 0 287 127 305 284c0 157 -146 285 -311 285c-168 0 -310 -128 -310 -285zM230 140l-15 399h251
c80 0 125 -49 125 -114c0 -41 -19 -72 -52 -92c34 -18 36 -42 38 -138c1 -12 7 -13 18 -20v-35h-111c-12 24 -19 34 -19 77c0 8 2 32 2 39c0 24 -11 32 -45 32h-97l15 -148h-110zM325 378h102c44 0 52 11 52 37c0 24 -8 34 -52 34h-102v-71z" />
    <glyph glyph-name="macron" unicode="&#xaf;" horiz-adv-x="376" 
d="M36 626v89h309v-89h-309z" />
    <glyph glyph-name="degree" unicode="&#xb0;" horiz-adv-x="353" 
d="M30 569c0 79 66 143 148 143s148 -64 148 -143s-66 -143 -148 -143s-148 64 -148 143zM96 569c0 -42 37 -77 82 -77s82 35 82 77s-37 77 -82 77s-82 -35 -82 -77z" />
    <glyph glyph-name="plusminus" unicode="&#xb1;" horiz-adv-x="560" 
d="M36 -5v110h492v-110h-492zM36 295v110h191v177h110v-177h191v-110h-191v-110h-110v110h-191z" />
    <glyph glyph-name="two.superior" unicode="&#xb2;" horiz-adv-x="344" 
d="M30 336v5c2 73 24 108 94 153c87 55 97 70 97 104c0 33 -18 50 -49 50c-30 0 -47 -20 -47 -58l1 -19h-90c-1 6 -2 18 -2 21c0 84 53 131 143 131c87 0 138 -44 138 -121c0 -55 -23 -81 -92 -130c-54 -37 -51 -34 -69 -55h159v-81h-283z" />
    <glyph glyph-name="three.superior" unicode="&#xb3;" horiz-adv-x="341" 
d="M29 455v5h91v-5c3 -37 18 -53 52 -53c30 0 50 20 50 48c0 31 -22 50 -69 50h-19v65h15c42 0 61 15 61 43c0 25 -17 41 -42 41c-33 0 -45 -15 -45 -61v-5h-88v5c4 96 54 135 136 135c79 0 132 -41 132 -105c0 -32 -15 -58 -41 -76c36 -21 54 -51 54 -91
c0 -77 -59 -127 -145 -127c-89 0 -141 48 -142 131z" />
    <glyph glyph-name="acute" unicode="&#xb4;" horiz-adv-x="294" 
d="M29 588l75 164h170l-135 -164h-110z" />
    <glyph glyph-name="mu" unicode="&#xb5;" horiz-adv-x="616" 
d="M39 -220v760h150v-331c0 -72 33 -103 91 -103c64 0 110 41 110 99v335h150v-386c0 -58 6 -67 25 -67c5 0 17 3 25 6v-97l-3 -1c-24 -12 -43 -18 -72 -18c-46 0 -73 15 -96 51c-40 -38 -76 -51 -128 -51c-44 0 -78 10 -108 32v-229h-144z" />
    <glyph glyph-name="paragraph" unicode="&#xb6;" horiz-adv-x="576" 
d="M25 493c0 126 89 236 212 236h316v-82h-43v-838h-108v838h-61v-838h-108v453c-123 8 -208 104 -208 231z" />
    <glyph glyph-name="periodcentered" unicode="&#xb7;" horiz-adv-x="229" 
d="M37 250c0 44 36 80 80 80s80 -36 80 -80s-36 -80 -80 -80s-80 36 -80 80z" />
    <glyph glyph-name="cedilla" unicode="&#xb8;" horiz-adv-x="338" 
d="M31 -199l22 71c52 -21 81 -32 108 -32c31 0 52 17 52 36c0 16 -15 26 -46 26h-72l54 103h74l-27 -45h32c50 0 81 -36 81 -82c0 -63 -49 -107 -134 -107c-45 0 -75 6 -140 28z" />
    <glyph glyph-name="one.superior" unicode="&#xb9;" horiz-adv-x="251" 
d="M30 584v64h5c70 0 108 19 118 61h65v-374h-94v249h-94z" />
    <glyph glyph-name="ordmasculine" unicode="&#xba;" horiz-adv-x="400" 
d="M30 557c0 106 63 172 172 172c111 0 171 -65 171 -174c0 -103 -63 -169 -171 -169c-109 0 -172 66 -172 171zM40 262v88h324v-88h-324zM124 558c0 -58 31 -94 78 -94s77 36 77 92c0 59 -29 95 -77 95c-47 0 -78 -36 -78 -93z" />
    <glyph glyph-name="guillemotright" unicode="&#xbb;" horiz-adv-x="473" 
d="M37 65v126l98 87l-98 87v123l185 -151v-119zM257 65v126l106 87l-106 87v123l185 -151v-119z" />
    <glyph glyph-name="onequarter" unicode="&#xbc;" horiz-adv-x="810" 
d="M26 579v64h5c70 0 107 22 118 66h65v-384h-94v254h-94zM118 -25l479 740h107l-486 -740h-100zM472 77v71l170 231h106v-226h40v-76h-40v-82h-94v82h-182zM563 153h91v122z" />
    <glyph glyph-name="onehalf" unicode="&#xbd;" horiz-adv-x="825" 
d="M26 579v64h5c70 0 107 22 118 66h65v-384h-94v254h-94zM92 -25l467 740h109l-477 -740h-99zM500 0c2 73 24 108 93 153c101 57 113 71 113 107c0 34 -21 52 -57 52c-34 0 -55 -20 -55 -58l4 -19h-92c-1 6 -2 18 -2 21c0 84 53 131 151 131c94 0 144 -44 144 -123
c0 -55 -21 -84 -91 -132c-60 -36 -58 -34 -79 -56h169v-81h-298v5z" />
    <glyph glyph-name="threequarters" unicode="&#xbe;" horiz-adv-x="822" 
d="M26 450v5h91v-5c3 -37 19 -53 56 -53c34 0 57 20 57 48c0 31 -25 50 -79 50h-20v65h15c48 0 71 16 71 46c0 26 -20 43 -49 43c-36 0 -48 -15 -48 -61v-5h-88v5c4 96 55 135 140 135c91 0 152 -43 152 -108c0 -33 -18 -60 -48 -78c41 -21 62 -51 62 -91
c0 -77 -67 -127 -166 -127c-92 0 -145 48 -146 131zM152 -25l494 750h101l-481 -750h-114zM483 77v71l171 231h105v-226h40v-76h-40v-82h-94v82h-182zM574 153h91v122z" />
    <glyph glyph-name="questiondown" unicode="&#xbf;" horiz-adv-x="590" 
d="M31 31c0 86 28 132 122 198c65 42 70 50 70 115v5h155v-19c0 -76 -30 -124 -117 -188c-68 -49 -79 -64 -79 -108c0 -63 49 -110 115 -110c69 0 121 54 121 129v16h146v-5c0 -184 -102 -268 -264 -268c-164 0 -269 96 -269 235zM205 384v156h184v-156h-184z" />
    <glyph glyph-name="Agrave" unicode="&#xc0;" horiz-adv-x="785" 
d="M21 0l276 729h201l268 -729h-165l-55 147h-305l-56 -147h-164zM170 921h204l95 -145h-135zM293 277h202l-101 264z" />
    <glyph glyph-name="Aacute" unicode="&#xc1;" horiz-adv-x="785" 
d="M21 0l276 729h201l268 -729h-165l-55 147h-305l-56 -147h-164zM293 277h202l-101 264zM326 776l94 145h204l-163 -145h-135z" />
    <glyph glyph-name="Acircumflex" unicode="&#xc2;" horiz-adv-x="785" 
d="M21 0l276 729h201l268 -729h-165l-55 147h-305l-56 -147h-164zM167 777l158 145h152l149 -145h-119l-111 69l-111 -69h-118zM293 277h202l-101 264z" />
    <glyph glyph-name="Atilde" unicode="&#xc3;" horiz-adv-x="785" 
d="M21 0l276 729h201l268 -729h-165l-55 147h-305l-56 -147h-164zM190 780v5c5 79 46 129 114 129c22 0 26 0 67 -13l82 -25c7 -2 29 -6 36 -6c20 0 33 12 36 43v5h83v-5c-4 -86 -42 -132 -114 -132c-18 0 -42 4 -66 12l-81 26c-14 4 -23 6 -32 6c-28 0 -33 -14 -42 -45h-83
zM293 277h202l-101 264z" />
    <glyph glyph-name="Adieresis" unicode="&#xc4;" horiz-adv-x="785" 
d="M21 0l276 729h201l268 -729h-165l-55 147h-305l-56 -147h-164zM208 787v125h156v-125h-156zM293 277h202l-101 264zM432 787v125h156v-125h-156z" />
    <glyph glyph-name="Aring" unicode="&#xc5;" horiz-adv-x="785" 
d="M21 0l276 729h201l268 -729h-165l-55 147h-305l-56 -147h-164zM278 858c0 58 53 104 122 104c67 0 118 -46 118 -105c0 -57 -55 -103 -119 -103c-68 0 -121 46 -121 104zM293 277h202l-101 264zM350 858c0 -22 22 -41 50 -41c24 0 46 19 46 41s-21 41 -46 41
c-28 0 -50 -19 -50 -41z" />
    <glyph glyph-name="AE" unicode="&#xc6;" horiz-adv-x="1128" 
d="M21 0l288 729h790v-135h-441v-150h414l-17 -135h-379v-174h426v-135h-610v147h-246l-61 -147h-164zM297 277h195l6 317h-66z" />
    <glyph glyph-name="Ccedilla" unicode="&#xc7;" horiz-adv-x="755" 
d="M29 364c0 235 130 377 366 377c189 0 319 -93 332 -264v-5h-152c-27 94 -81 131 -175 131c-131 0 -211 -85 -211 -241c0 -154 77 -238 206 -238c105 0 169 40 179 130v5h156v-5c-9 -162 -123 -257 -310 -265l-16 -29h37c58 0 93 -36 93 -82c0 -63 -56 -107 -154 -107
c-52 0 -86 6 -161 28l-5 2l25 71c60 -21 94 -32 125 -32c36 0 59 17 59 36c0 16 -17 26 -53 26h-82l48 89c-198 20 -307 158 -307 373z" />
    <glyph glyph-name="Egrave" unicode="&#xc8;" horiz-adv-x="620" 
d="M36 0v729h557v-135h-397v-150h377v-135h-377v-174h397v-135h-557zM105 921h193l94 -145h-134z" />
    <glyph glyph-name="Eacute" unicode="&#xc9;" horiz-adv-x="620" 
d="M36 0v729h557v-135h-397v-150h377v-135h-377v-174h397v-135h-557zM250 776l94 145h197l-157 -145h-134z" />
    <glyph glyph-name="Ecircumflex" unicode="&#xca;" horiz-adv-x="620" 
d="M36 0v729h557v-135h-397v-150h377v-135h-377v-174h397v-135h-557zM102 777l147 145h151l143 -145h-113l-110 69l-112 -69h-106z" />
    <glyph glyph-name="Edieresis" unicode="&#xcb;" horiz-adv-x="620" 
d="M36 0v729h557v-135h-397v-150h377v-135h-377v-174h397v-135h-557zM140 787v125h148v-125h-148zM356 787v125h151v-125h-151z" />
    <glyph glyph-name="Igrave" unicode="&#xcc;" horiz-adv-x="309" 
d="M15 921h180l82 -145h-117zM113 0v729h160v-729h-160z" />
    <glyph glyph-name="Iacute" unicode="&#xcd;" horiz-adv-x="306" 
d="M32 776l82 145h180l-145 -145h-117zM35 0v729h160v-729h-160z" />
    <glyph glyph-name="Icircumflex" unicode="&#xce;" horiz-adv-x="436" 
d="M15 777l140 145h132l134 -145h-107l-97 69l-97 -69h-105zM138 0v729h160v-729h-160z" />
    <glyph glyph-name="Idieresis" unicode="&#xcf;" horiz-adv-x="375" 
d="M23 787v125h136v-125h-136zM108 0v729h160v-729h-160zM218 787v125h136v-125h-136z" />
    <glyph glyph-name="Eth" unicode="&#xd0;" horiz-adv-x="791" 
d="M26 333v91l77 14v291h310c132 0 211 -25 260 -85c56 -68 89 -173 89 -279c0 -108 -33 -210 -89 -279c-49 -61 -128 -86 -260 -86h-310v319zM263 135h150c153 0 195 93 195 229c0 137 -42 230 -195 230h-150v-156l173 -14v-91l-173 -14v-184z" />
    <glyph glyph-name="Ntilde" unicode="&#xd1;" horiz-adv-x="715" 
d="M36 0v729h162l323 -482v482h160v-729h-158l-327 490v-490h-160zM154 780v5c4 79 39 129 107 129c22 0 26 0 67 -13l82 -25c7 -2 29 -6 36 -6c20 0 33 12 36 43v5h78v-5c-4 -86 -37 -132 -109 -132c-18 0 -42 4 -66 12l-81 26c-14 4 -23 6 -32 6c-28 0 -33 -14 -42 -45
h-76z" />
    <glyph glyph-name="Ograve" unicode="&#xd2;" horiz-adv-x="826" 
d="M28 365c0 208 138 376 384 376s386 -162 386 -381c0 -212 -141 -372 -385 -372c-246 0 -385 160 -385 377zM183 921h206l94 -145h-134zM188 365c0 -148 89 -239 225 -239c135 0 225 91 225 235c0 147 -88 242 -225 242c-136 0 -225 -96 -225 -238z" />
    <glyph glyph-name="Oacute" unicode="&#xd3;" horiz-adv-x="826" 
d="M28 365c0 208 138 376 384 376s386 -162 386 -381c0 -212 -141 -372 -385 -372c-246 0 -385 160 -385 377zM188 365c0 -148 89 -239 225 -239c135 0 225 91 225 235c0 147 -88 242 -225 242c-136 0 -225 -96 -225 -238zM341 776l94 145h206l-166 -145h-134z" />
    <glyph glyph-name="Ocircumflex" unicode="&#xd4;" horiz-adv-x="826" 
d="M28 365c0 208 138 376 384 376s386 -162 386 -381c0 -212 -141 -372 -385 -372c-246 0 -385 160 -385 377zM180 777l159 145h152l152 -145h-122l-110 69l-112 -69h-119zM188 365c0 -148 89 -239 225 -239c135 0 225 91 225 235c0 147 -88 242 -225 242
c-136 0 -225 -96 -225 -238z" />
    <glyph glyph-name="Otilde" unicode="&#xd5;" horiz-adv-x="826" 
d="M28 365c0 208 138 376 384 376s386 -162 386 -381c0 -212 -141 -372 -385 -372c-246 0 -385 160 -385 377zM188 365c0 -148 89 -239 225 -239c135 0 225 91 225 235c0 147 -88 242 -225 242c-136 0 -225 -96 -225 -238zM205 780v5c5 79 46 129 114 129c22 0 25 0 66 -13
l82 -25c7 -2 30 -6 37 -6c20 0 33 12 36 43v5h83v-5c-5 -86 -43 -132 -115 -132c-18 0 -41 4 -65 12l-82 26c-14 4 -23 6 -32 6c-28 0 -32 -14 -41 -45h-83z" />
    <glyph glyph-name="Odieresis" unicode="&#xd6;" horiz-adv-x="826" 
d="M28 365c0 208 138 376 384 376s386 -162 386 -381c0 -212 -141 -372 -385 -372c-246 0 -385 160 -385 377zM188 365c0 -148 89 -239 225 -239c135 0 225 91 225 235c0 147 -88 242 -225 242c-136 0 -225 -96 -225 -238zM222 787v125h156v-125h-156zM446 787v125h157v-125
h-157z" />
    <glyph glyph-name="multiply" unicode="&#xd7;" horiz-adv-x="483" 
d="M23 121l129 129l-129 129l77 74l142 -125l142 125l77 -74l-129 -129l129 -129l-77 -74l-142 125l-142 -125z" />
    <glyph glyph-name="Oslash" unicode="&#xd8;" horiz-adv-x="826" 
d="M26 59l69 73c-45 64 -68 143 -68 233c0 208 139 376 385 376c98 0 182 -26 246 -71l66 70l75 -70l-70 -74c45 -64 69 -145 69 -236c0 -212 -141 -372 -385 -372c-99 0 -183 25 -247 70l-65 -69zM187 360c0 -44 8 -83 22 -116l338 319c-36 26 -81 40 -134 40
c-136 0 -226 -98 -226 -243zM277 166c37 -26 83 -40 136 -40c135 0 225 93 225 240c0 44 -9 86 -23 119z" />
    <glyph glyph-name="Ugrave" unicode="&#xd9;" horiz-adv-x="695" 
d="M33 247v482h160v-480c0 -84 48 -123 154 -123s155 39 155 123v480h160v-482c0 -173 -126 -259 -315 -259s-314 86 -314 259zM123 921h197l94 -145h-134z" />
    <glyph glyph-name="Uacute" unicode="&#xda;" horiz-adv-x="695" 
d="M33 247v482h160v-480c0 -84 48 -123 154 -123s155 39 155 123v480h160v-482c0 -173 -126 -259 -315 -259s-314 86 -314 259zM272 776l94 145h198l-158 -145h-134z" />
    <glyph glyph-name="Ucircumflex" unicode="&#xdb;" horiz-adv-x="695" 
d="M33 247v482h160v-480c0 -84 48 -123 154 -123s155 39 155 123v480h160v-482c0 -173 -126 -259 -315 -259s-314 86 -314 259zM120 777l150 145h152l144 -145h-114l-110 69l-112 -69h-110z" />
    <glyph glyph-name="Udieresis" unicode="&#xdc;" horiz-adv-x="695" 
d="M33 247v482h160v-480c0 -84 48 -123 154 -123s155 39 155 123v480h160v-482c0 -173 -126 -259 -315 -259s-314 86 -314 259zM158 787v125h152v-125h-152zM377 787v125h153v-125h-153z" />
    <glyph glyph-name="Yacute" unicode="&#xdd;" horiz-adv-x="736" 
d="M20 729h186l168 -315l157 315h187l-275 -459v-270h-160v270zM304 776l94 145h206l-165 -145h-135z" />
    <glyph glyph-name="Thorn" unicode="&#xde;" horiz-adv-x="667" 
d="M36 0v729h160v-115h192c95 0 147 -17 188 -57c43 -42 64 -100 64 -175c0 -151 -87 -247 -235 -247h-209v-135h-160zM196 270h155c90 0 129 33 129 104c0 72 -39 105 -129 105h-155v-209z" />
    <glyph glyph-name="germandbls" unicode="&#xdf;" horiz-adv-x="586" 
d="M36 0v568c0 98 80 160 246 161c156 0 247 -75 247 -195c0 -64 -27 -103 -88 -142c72 -39 120 -86 120 -167c0 -139 -110 -229 -298 -229h-6l3 130h6c95 0 145 42 145 99c0 70 -74 99 -187 99h-6v104h19c94 0 137 26 137 92c0 55 -34 86 -95 86c-69 0 -93 -12 -93 -50
v-556h-150z" />
    <glyph glyph-name="agrave" unicode="&#xe0;" 
d="M26 147c0 98 55 146 165 165l65 9c83 12 124 6 124 57c0 31 -26 48 -87 48c-78 0 -101 -16 -109 -70l-1 -4h-145v5c9 128 88 192 251 192c159 0 238 -57 238 -168v-295c0 -26 6 -39 30 -61l2 -1v-24h-159c-14 14 -18 37 -19 61c-55 -46 -116 -70 -183 -70
c-95 0 -172 50 -172 156zM87 752h183l86 -164h-127zM176 167c0 -36 29 -53 82 -53c78 0 122 43 122 122v16c-14 -6 -25 -8 -61 -14l-55 -9c-67 -11 -88 -24 -88 -62z" />
    <glyph glyph-name="aacute" unicode="&#xe1;" 
d="M26 147c0 98 55 146 165 165l65 9c83 12 124 6 124 57c0 31 -26 48 -87 48c-78 0 -101 -16 -109 -70l-1 -4h-145v5c9 128 88 192 251 192c159 0 238 -57 238 -168v-295c0 -26 6 -39 30 -61l2 -1v-24h-159c-14 14 -18 37 -19 61c-55 -46 -116 -70 -183 -70
c-95 0 -172 50 -172 156zM176 167c0 -36 29 -53 82 -53c78 0 122 43 122 122v16c-14 -6 -25 -8 -61 -14l-55 -9c-67 -11 -88 -24 -88 -62zM222 588l87 164h179l-139 -164h-127z" />
    <glyph glyph-name="acircumflex" unicode="&#xe2;" 
d="M26 147c0 98 55 146 165 165l65 9c83 12 124 6 124 57c0 31 -26 48 -87 48c-78 0 -101 -16 -109 -70l-1 -4h-145v5c9 128 88 192 251 192c159 0 238 -57 238 -168v-295c0 -26 6 -39 30 -61l2 -1v-24h-159c-14 14 -18 37 -19 61c-55 -46 -116 -70 -183 -70
c-95 0 -172 50 -172 156zM95 588l121 164h152l111 -164h-99l-92 75l-92 -75h-101zM176 167c0 -36 29 -53 82 -53c78 0 122 43 122 122v16c-14 -6 -25 -8 -61 -14l-55 -9c-67 -11 -88 -24 -88 -62z" />
    <glyph glyph-name="atilde" unicode="&#xe3;" 
d="M26 147c0 98 55 146 165 165l65 9c83 12 124 6 124 57c0 31 -26 48 -87 48c-78 0 -101 -16 -109 -70l-1 -4h-145v5c9 128 88 192 251 192c159 0 238 -57 238 -168v-295c0 -26 6 -39 30 -61l2 -1v-24h-159c-14 14 -18 37 -19 61c-55 -46 -116 -70 -183 -70
c-95 0 -172 50 -172 156zM93 601v5c4 79 41 129 102 129c22 0 26 0 67 -13l81 -25c7 -2 30 -6 37 -6c17 0 28 12 31 43v5h73v-5c-4 -86 -37 -132 -100 -132c-18 0 -41 4 -65 12l-82 26c-14 4 -23 6 -32 6c-28 0 -32 -14 -40 -45h-72zM176 167c0 -36 29 -53 82 -53
c78 0 122 43 122 122v16c-14 -6 -25 -8 -61 -14l-55 -9c-67 -11 -88 -24 -88 -62z" />
    <glyph glyph-name="adieresis" unicode="&#xe4;" 
d="M26 147c0 98 55 146 165 165l65 9c83 12 124 6 124 57c0 31 -26 48 -87 48c-78 0 -101 -16 -109 -70l-1 -4h-145v5c9 128 88 192 251 192c159 0 238 -57 238 -168v-295c0 -26 6 -39 30 -61l2 -1v-24h-159c-14 14 -18 37 -19 61c-55 -46 -116 -70 -183 -70
c-95 0 -172 50 -172 156zM108 608v125h147v-125h-147zM176 167c0 -36 29 -53 82 -53c78 0 122 43 122 122v16c-14 -6 -25 -8 -61 -14l-55 -9c-67 -11 -88 -24 -88 -62zM322 608v125h144v-125h-144z" />
    <glyph glyph-name="aring" unicode="&#xe5;" 
d="M26 147c0 98 55 146 165 165l65 9c83 12 124 6 124 57c0 31 -26 48 -87 48c-78 0 -101 -16 -109 -70l-1 -4h-145v5c9 128 88 192 251 192c159 0 238 -57 238 -168v-295c0 -26 6 -39 30 -61l2 -1v-24h-159c-14 14 -18 37 -19 61c-55 -46 -116 -70 -183 -70
c-95 0 -172 50 -172 156zM169 670c0 58 52 104 121 104c67 0 115 -46 115 -105c0 -57 -52 -103 -116 -103c-68 0 -120 46 -120 104zM176 167c0 -36 29 -53 82 -53c78 0 122 43 122 122v16c-14 -6 -25 -8 -61 -14l-55 -9c-67 -11 -88 -24 -88 -62zM241 670
c0 -22 21 -41 49 -41c24 0 46 19 46 41s-21 41 -46 41c-28 0 -49 -19 -49 -41z" />
    <glyph glyph-name="ae" unicode="&#xe6;" horiz-adv-x="921" 
d="M26 150c0 99 54 145 165 164l65 10c80 12 79 10 100 20c15 7 24 21 24 35c0 31 -28 47 -92 47c-70 0 -96 -18 -104 -70l-1 -4h-141v5c2 127 82 192 248 192c89 0 147 -17 187 -49c42 33 95 49 155 49c164 0 261 -111 261 -299c0 -5 0 -12 -1 -24v-4h-362
c2 -79 46 -115 109 -115c46 0 93 28 101 52h148c-32 -97 -130 -167 -257 -167c-87 0 -157 35 -201 101c-63 -70 -134 -102 -227 -102c-108 0 -177 58 -177 159zM176 168c0 -37 29 -54 82 -54c79 0 122 42 122 122v14c-17 -8 -31 -12 -61 -15l-55 -7c-61 -8 -88 -23 -88 -60z
M531 324h205c-8 76 -42 113 -103 113c-60 0 -95 -38 -102 -113z" />
    <glyph glyph-name="ccedilla" unicode="&#xe7;" horiz-adv-x="587" 
d="M29 266c0 183 96 283 276 283c155 0 246 -82 256 -216v-5h-147c-20 71 -44 98 -110 98c-97 0 -125 -64 -125 -161c0 -102 48 -154 125 -154c62 0 89 26 110 81h148l-1 -5c-12 -109 -96 -186 -230 -195l-18 -32h37c58 0 93 -36 93 -82c0 -63 -56 -107 -154 -107
c-52 0 -86 6 -154 28l-4 2l22 71c56 -21 89 -32 120 -32c36 0 60 17 60 36c0 16 -17 26 -53 26h-83l51 92c-143 19 -219 114 -219 272z" />
    <glyph glyph-name="egrave" unicode="&#xe8;" horiz-adv-x="606" 
d="M29 263c0 180 97 286 271 286c183 0 278 -113 278 -297l-1 -22h-398c6 -98 52 -122 123 -122c61 0 107 15 118 54h154l-2 -6c-32 -109 -136 -165 -276 -165c-171 0 -267 100 -267 272zM97 752h183l86 -164h-126zM182 326h234c-9 71 -55 106 -119 106
c-67 0 -103 -36 -115 -106z" />
    <glyph glyph-name="eacute" unicode="&#xe9;" horiz-adv-x="606" 
d="M29 263c0 180 97 286 271 286c183 0 278 -113 278 -297l-1 -22h-398c6 -98 52 -122 123 -122c61 0 107 15 118 54h154l-2 -6c-32 -109 -136 -165 -276 -165c-171 0 -267 100 -267 272zM182 326h234c-9 71 -55 106 -119 106c-67 0 -103 -36 -115 -106zM233 588l86 164h188
l-148 -164h-126z" />
    <glyph glyph-name="ecircumflex" unicode="&#xea;" horiz-adv-x="606" 
d="M29 263c0 180 97 286 271 286c183 0 278 -113 278 -297l-1 -22h-398c6 -98 52 -122 123 -122c61 0 107 15 118 54h154l-2 -6c-32 -109 -136 -165 -276 -165c-171 0 -267 100 -267 272zM105 588l121 164h153l119 -164h-108l-92 75l-92 -75h-101zM182 326h234
c-9 71 -55 106 -119 106c-67 0 -103 -36 -115 -106z" />
    <glyph glyph-name="edieresis" unicode="&#xeb;" horiz-adv-x="606" 
d="M29 263c0 180 97 286 271 286c183 0 278 -113 278 -297l-1 -22h-398c6 -98 52 -122 123 -122c61 0 107 15 118 54h154l-2 -6c-32 -109 -136 -165 -276 -165c-171 0 -267 100 -267 272zM118 608v125h147v-125h-147zM182 326h234c-9 71 -55 106 -119 106
c-67 0 -103 -36 -115 -106zM333 608v125h152v-125h-152z" />
    <glyph glyph-name="igrave" unicode="&#xec;" horiz-adv-x="294" 
d="M16 752h170l75 -164h-110zM108 0v540h150v-540h-150z" />
    <glyph glyph-name="iacute" unicode="&#xed;" horiz-adv-x="290" 
d="M32 588l75 164h170l-135 -164h-110zM34 0v540h150v-540h-150z" />
    <glyph glyph-name="icircumflex" unicode="&#xee;" horiz-adv-x="391" 
d="M17 588l115 164h133l109 -164h-99l-80 75l-80 -75h-98zM119 0v540h150v-540h-150z" />
    <glyph glyph-name="idieresis" unicode="&#xef;" horiz-adv-x="380" 
d="M25 608v125h136v-125h-136zM114 0v540h150v-540h-150zM220 608v125h136v-125h-136z" />
    <glyph glyph-name="eth" unicode="&#xf0;" horiz-adv-x="637" 
d="M29 272c0 159 99 263 258 263c26 0 50 -4 84 -14c-29 36 -59 60 -96 79l-89 -46l-50 44l71 43c-28 14 -40 22 -85 44l-8 3l77 54c45 -13 49 -18 104 -44c0 0 8 -3 15 -5l100 52l66 -40l-94 -50c158 -101 227 -215 227 -378c0 -183 -101 -286 -290 -286
c-188 0 -290 102 -290 281zM180 272c0 -101 55 -158 139 -158s139 56 139 154v1c0 104 -55 160 -139 160s-139 -57 -139 -157z" />
    <glyph glyph-name="ntilde" unicode="&#xf1;" horiz-adv-x="589" 
d="M34 0v540h150v-67c46 53 102 76 181 76c123 0 191 -70 191 -189v-360h-150v330c0 61 -31 90 -97 90c-76 0 -125 -39 -125 -99v-321h-150zM102 601v5c4 79 40 129 101 129c22 0 26 0 67 -13l81 -25c7 -2 30 -6 37 -6c19 0 30 12 33 43v5h73v-5c-4 -86 -36 -132 -101 -132
c-18 0 -42 4 -66 12l-82 26c-14 4 -23 6 -32 6c-28 0 -31 -14 -39 -45h-72z" />
    <glyph glyph-name="ograve" unicode="&#xf2;" horiz-adv-x="637" 
d="M29 270c0 176 103 279 289 279c190 0 291 -101 291 -283c0 -172 -105 -275 -290 -275c-187 0 -290 102 -290 279zM117 752h186l86 -164h-126zM179 270c0 -98 57 -156 140 -156c82 0 140 58 140 154c0 101 -56 158 -140 158c-83 0 -140 -58 -140 -156z" />
    <glyph glyph-name="oacute" unicode="&#xf3;" horiz-adv-x="637" 
d="M29 270c0 176 103 279 289 279c190 0 291 -101 291 -283c0 -172 -105 -275 -290 -275c-187 0 -290 102 -290 279zM179 270c0 -98 57 -156 140 -156c82 0 140 58 140 154c0 101 -56 158 -140 158c-83 0 -140 -58 -140 -156zM257 588l86 164h185l-145 -164h-126z" />
    <glyph glyph-name="ocircumflex" unicode="&#xf4;" horiz-adv-x="637" 
d="M29 270c0 176 103 279 289 279c190 0 291 -101 291 -283c0 -172 -105 -275 -290 -275c-187 0 -290 102 -290 279zM126 588l124 164h153l116 -164h-105l-92 75l-92 -75h-104zM179 270c0 -98 57 -156 140 -156c82 0 140 58 140 154c0 101 -56 158 -140 158
c-83 0 -140 -58 -140 -156z" />
    <glyph glyph-name="otilde" unicode="&#xf5;" horiz-adv-x="637" 
d="M29 270c0 176 103 279 289 279c190 0 291 -101 291 -283c0 -172 -105 -275 -290 -275c-187 0 -290 102 -290 279zM124 601v5c4 79 39 129 105 129c22 0 26 0 67 -13l82 -25c7 -2 29 -6 36 -6c20 0 33 12 36 43v5h74v-5c-4 -86 -37 -132 -105 -132c-18 0 -41 4 -65 12
l-82 26c-14 4 -23 6 -32 6c-28 0 -33 -14 -42 -45h-74zM179 270c0 -98 57 -156 140 -156c82 0 140 58 140 154c0 101 -56 158 -140 158c-83 0 -140 -58 -140 -156z" />
    <glyph glyph-name="odieresis" unicode="&#xf6;" horiz-adv-x="637" 
d="M29 270c0 176 103 279 289 279c190 0 291 -101 291 -283c0 -172 -105 -275 -290 -275c-187 0 -290 102 -290 279zM139 608v125h150v-125h-150zM179 270c0 -98 57 -156 140 -156c82 0 140 58 140 154c0 101 -56 158 -140 158c-83 0 -140 -58 -140 -156zM357 608v125h149
v-125h-149z" />
    <glyph glyph-name="divide" unicode="&#xf7;" horiz-adv-x="570" 
d="M31 195v110h509v-110h-509zM194 68c0 44 36 80 80 80s80 -36 80 -80c0 -45 -36 -80 -80 -80s-80 35 -80 80zM194 432c0 45 41 80 92 80s92 -35 92 -80c0 -44 -41 -80 -92 -80s-92 36 -92 80z" />
    <glyph glyph-name="oslash" unicode="&#xf8;" horiz-adv-x="638" 
d="M29 270c0 176 103 279 289 279c75 0 139 -15 182 -44l39 40l67 -64l-41 -42c30 -46 44 -103 44 -173c0 -172 -105 -275 -290 -275c-74 0 -138 16 -181 44l-39 -40l-67 64l41 42c-29 46 -44 101 -44 169zM179 265c0 -20 4 -39 7 -54l211 194c-22 14 -48 21 -78 21
c-83 0 -140 -60 -140 -161zM241 136c22 -14 48 -22 78 -22c82 0 140 60 140 159c0 21 -4 40 -7 56z" />
    <glyph glyph-name="ugrave" unicode="&#xf9;" horiz-adv-x="590" 
d="M33 180v360h150v-330c0 -61 32 -90 98 -90c76 0 124 39 124 99v321h150v-540h-150v62c-46 -47 -101 -71 -180 -71c-123 0 -192 70 -192 189zM98 752h183l86 -164h-126z" />
    <glyph glyph-name="uacute" unicode="&#xfa;" horiz-adv-x="590" 
d="M33 180v360h150v-330c0 -61 32 -90 98 -90c76 0 124 39 124 99v321h150v-540h-150v62c-46 -47 -101 -71 -180 -71c-123 0 -192 70 -192 189zM235 588l86 164h181l-140 -164h-127z" />
    <glyph glyph-name="ucircumflex" unicode="&#xfb;" horiz-adv-x="590" 
d="M33 180v360h150v-330c0 -61 32 -90 98 -90c76 0 124 39 124 99v321h150v-540h-150v62c-46 -47 -101 -71 -180 -71c-123 0 -192 70 -192 189zM107 588l121 164h153l112 -164h-100l-92 75l-92 -75h-102z" />
    <glyph glyph-name="udieresis" unicode="&#xfc;" horiz-adv-x="590" 
d="M33 180v360h150v-330c0 -61 32 -90 98 -90c76 0 124 39 124 99v321h150v-540h-150v62c-46 -47 -101 -71 -180 -71c-123 0 -192 70 -192 189zM120 608v125h147v-125h-147zM335 608v125h145v-125h-145z" />
    <glyph glyph-name="yacute" unicode="&#xfd;" horiz-adv-x="628" 
d="M21 540h171l133 -380l124 380h160l-239 -636c-44 -105 -104 -123 -213 -123c-19 0 -37 0 -57 5v116c16 -5 31 -8 42 -8c53 0 94 37 94 85v2zM253 588l87 164h189l-149 -164h-127z" />
    <glyph glyph-name="thorn" unicode="&#xfe;" horiz-adv-x="623" 
d="M36 -218v947h150v-256c40 52 94 76 166 76c146 0 244 -123 244 -287c0 -148 -98 -271 -244 -271c-74 0 -127 25 -166 75v-284h-150zM186 262c0 -82 54 -144 130 -144c75 0 130 62 130 142c0 99 -53 162 -130 162c-76 0 -130 -63 -130 -160z" />
    <glyph glyph-name="ydieresis" unicode="&#xff;" horiz-adv-x="628" 
d="M21 540h171l133 -380l124 380h160l-239 -636c-44 -105 -104 -123 -213 -123c-19 0 -37 0 -57 5v116c16 -5 31 -8 42 -8c53 0 94 37 94 85v2zM131 608v125h155v-125h-155zM353 608v125h154v-125h-154z" />
    <glyph glyph-name="Idotaccent" unicode="&#x130;" horiz-adv-x="230" 
d="M36 0v729h160v-729h-160zM42 774v150h150v-150h-150z" />
    <glyph glyph-name="OE" unicode="&#x152;" horiz-adv-x="1049" 
d="M29 359c0 224 124 382 328 382c70 0 116 -16 167 -57v45h481v-135h-327v-150h299v-135h-299v-174h346v-135h-500v64c-52 -54 -97 -73 -172 -73c-197 0 -323 146 -323 368zM189 359c0 -147 81 -230 198 -230c60 0 99 20 131 68v338c-33 49 -70 68 -130 68
c-118 0 -199 -95 -199 -244z" />
    <glyph glyph-name="oe" unicode="&#x153;" horiz-adv-x="1000" 
d="M29 263c0 177 103 286 290 286c91 0 164 -25 213 -74c44 49 106 74 180 74c165 0 260 -114 260 -299c0 -7 0 -12 -1 -24v-4h-362c4 -92 42 -116 109 -116c47 0 93 27 102 53h148c-28 -98 -133 -168 -257 -168c-72 0 -135 26 -179 73c-52 -49 -122 -73 -213 -73
c-187 0 -290 109 -290 272zM179 263c0 -85 57 -149 140 -149c82 0 140 64 140 147c0 101 -56 165 -140 165c-83 0 -140 -64 -140 -163zM612 324h203c-10 80 -49 113 -102 113c-59 0 -93 -39 -101 -113z" />
    <glyph glyph-name="racute" unicode="&#x155;" horiz-adv-x="390" 
d="M34 0v540h150v-88c38 63 95 97 155 97c4 0 16 0 22 -2v-152c-19 3 -34 5 -49 5c-84 0 -128 -37 -128 -115v-285h-150zM122 588l76 164h178l-137 -164h-117z" />
    <glyph glyph-name="Rcommaaccent" unicode="&#x156;" horiz-adv-x="701" 
d="M36 0v729h431c138 0 207 -85 207 -199c0 -86 -39 -145 -115 -178c85 -37 86 -58 90 -261c0 -30 7 -43 29 -55l3 -2v-34h-169l-1 3c-19 35 -24 58 -24 125l2 75c0 57 -29 81 -101 81h-192v-284h-160zM196 419h202c95 0 116 28 116 89c0 59 -24 86 -116 86h-202v-175z
M258 -50h152v-108c0 -84 -61 -147 -146 -149h-6v55l4 1c49 8 72 35 73 79h-77v122z" />
    <glyph glyph-name="Scaron" unicode="&#x160;" horiz-adv-x="714" 
d="M25 234v5h162v-5c0 -74 67 -116 183 -116c104 0 163 31 163 87c0 54 -38 73 -153 93l-124 20c-157 29 -218 83 -218 198c0 143 104 225 300 225c207 0 321 -82 321 -239v-5h-158v5c0 70 -63 109 -171 109c-87 0 -139 -34 -139 -84c0 -48 31 -67 154 -88l131 -22
c148 -26 209 -81 211 -197c0 -149 -115 -232 -327 -232c-215 0 -335 87 -335 246zM125 922h113l111 -69l111 69h119l-159 -145h-152z" />
    <glyph glyph-name="scaron" unicode="&#x161;" horiz-adv-x="589" 
d="M24 176v5h150l1 -4c13 -55 49 -66 121 -66c76 0 114 13 114 40c0 11 -10 21 -50 32l-195 50c-101 31 -122 69 -122 135c0 112 88 181 241 181c172 0 263 -71 265 -188v-5h-152v5c-1 46 -36 68 -114 68c-57 0 -90 -19 -90 -44c0 -19 7 -25 53 -36l208 -50
c73 -21 110 -68 110 -131v-7c0 -110 -88 -170 -259 -170c-186 0 -277 63 -281 185zM100 752h100l95 -75l95 75h106l-126 -164h-158z" />
    <glyph glyph-name="Ydieresis" unicode="&#x178;" horiz-adv-x="736" 
d="M20 729h186l168 -315l157 315h187l-275 -459v-270h-160v270zM186 787v125h156v-125h-156zM410 787v125h156v-125h-156z" />
    <glyph glyph-name="Zcaron" unicode="&#x17d;" horiz-adv-x="663" 
d="M31 0v130l405 464h-405v135h606v-130l-404 -464h404v-135h-606zM109 922h117l110 -69l112 69h114l-154 -145h-152z" />
    <glyph glyph-name="zcaron" unicode="&#x17e;" horiz-adv-x="543" 
d="M28 0v117l282 300h-264v123h462v-118l-281 -301h290v-121h-489zM84 752h104l92 -75l92 75h101l-121 -164h-153z" />
    <glyph glyph-name="florin" unicode="&#x192;" horiz-adv-x="612" 
d="M22 -196l27 126c22 -15 45 -24 60 -24c31 0 49 23 64 106l68 365h-135v106h154l12 54c26 141 95 207 217 207c31 0 54 -4 97 -17l5 -1l-22 -126l-6 2c-29 13 -38 16 -53 16c-36 0 -62 -31 -76 -102l-7 -34h128v-106h-146l-67 -373c-29 -162 -102 -223 -224 -223
c-33 0 -60 7 -92 23z" />
    <glyph glyph-name="Ohorn" unicode="&#x1a0;" horiz-adv-x="867" 
d="M28 366c0 109 37 204 103 274c64 67 163 101 281 101c136 0 243 -45 303 -127c28 25 48 61 50 105h-65v135h145v-114c0 -95 -43 -154 -90 -189c28 -59 43 -118 43 -190c0 -103 -39 -209 -103 -276c-65 -68 -161 -94 -282 -94s-217 26 -282 94c-66 69 -103 172 -103 281z
M188 366c0 -148 89 -237 225 -237c135 0 225 89 225 233c0 153 -87 241 -225 241c-136 0 -225 -89 -225 -237z" />
    <glyph glyph-name="AEacute" unicode="&#x1fc;" horiz-adv-x="1127" 
d="M21 0l288 729h790v-135h-441v-150h414l-17 -135h-379v-174h426v-135h-610v147h-246l-61 -147h-164zM297 277h195l6 317h-66zM516 776l82 145h214l-179 -145h-117z" />
    <glyph glyph-name="circumflex" unicode="&#x2c6;" horiz-adv-x="424" 
d="M25 588l115 164h151l109 -164h-99l-89 75l-89 -75h-98z" />
    <glyph glyph-name="tilde" unicode="&#x2dc;" horiz-adv-x="443" 
d="M32 606v5c4 76 40 124 99 124c19 0 23 -1 64 -12l81 -22c7 -2 29 -5 35 -5c17 0 28 10 31 38v5h73v-5c-4 -83 -37 -127 -100 -127c-16 0 -39 4 -63 11l-81 23c-14 3 -23 5 -31 5c-24 0 -29 -11 -36 -40h-72z" />
    <glyph glyph-name="Dlinebelow" unicode="&#x1e0e;" horiz-adv-x="721" 
d="M36 0v729h309c130 0 209 -25 259 -85c59 -69 90 -168 90 -279c0 -112 -32 -211 -90 -279c-51 -60 -130 -86 -259 -86h-309zM171 -85h351v-89h-351v89zM196 135h149c125 0 189 73 189 229c0 157 -64 230 -189 230h-149v-459z" />
    <glyph glyph-name="dlinebelow" unicode="&#x1e0f;" horiz-adv-x="623" 
d="M29 269c0 162 99 280 244 280c72 0 127 -22 166 -68v248h150v-729h-150v53c-40 -40 -94 -62 -166 -62c-159 0 -244 126 -244 278zM155 -85h343v-89h-343v89zM179 269c0 -95 54 -151 130 -151s130 55 130 149c0 99 -53 155 -130 155c-76 0 -130 -57 -130 -153z" />
    <glyph glyph-name="Rdotaccent" unicode="&#x1e58;" horiz-adv-x="701" 
d="M36 0v729h431c138 0 207 -85 207 -199c0 -86 -39 -145 -115 -178c85 -37 86 -58 90 -261c0 -30 7 -43 29 -55l3 -2v-34h-169l-1 3c-19 35 -24 58 -24 125l2 75c0 57 -29 81 -101 81h-192v-284h-160zM196 419h202c95 0 116 28 116 89c0 59 -24 86 -116 86h-202v-175z
M255 774v150h173v-150h-173z" />
    <glyph glyph-name="rdotaccent" unicode="&#x1e59;" horiz-adv-x="379" 
d="M34 0v540h150v-88c33 63 86 97 146 97c4 0 16 0 22 -2v-152c-19 3 -35 5 -50 5c-80 0 -118 -37 -118 -115v-285h-150zM104 595v150h150v-150h-150z" />
    <glyph glyph-name="Rdotbelow" unicode="&#x1e5a;" horiz-adv-x="701" 
d="M36 0v729h431c138 0 207 -85 207 -199c0 -86 -39 -145 -115 -178c85 -37 86 -58 90 -261c0 -30 7 -43 29 -55l3 -2v-34h-169l-1 3c-19 35 -24 58 -24 125l2 75c0 57 -29 81 -101 81h-192v-284h-160zM196 419h202c95 0 116 28 116 89c0 59 -24 86 -116 86h-202v-175z
M254 -55h173v-150h-173v150z" />
    <glyph glyph-name="rdotbelow" unicode="&#x1e5b;" horiz-adv-x="380" 
d="M36 0v540h150v-88c33 63 85 97 145 97c4 0 16 0 22 -2v-152c-19 3 -34 5 -49 5c-80 0 -118 -37 -118 -115v-285h-150zM36 -55h150v-150h-150v150z" />
    <glyph glyph-name="Rdotbelowmacron" unicode="&#x1e5c;" horiz-adv-x="701" 
d="M36 0v729h431c138 0 207 -85 207 -199c0 -86 -39 -145 -115 -178c85 -37 86 -58 90 -261c0 -30 7 -43 29 -55l3 -2v-34h-169l-1 3c-19 35 -24 58 -24 125l2 75c0 57 -29 81 -101 81h-192v-284h-160zM167 805v89h350v-89h-350zM196 419h202c95 0 116 28 116 89
c0 59 -24 86 -116 86h-202v-175zM254 -55h173v-150h-173v150z" />
    <glyph glyph-name="rdotbelowmacron" unicode="&#x1e5d;" horiz-adv-x="391" 
d="M28 635v89h316v-89h-316zM39 0v540h150v-88c38 63 92 97 152 97c4 0 16 0 22 -2v-152c-19 3 -34 5 -49 5c-81 0 -125 -37 -125 -115v-285h-150zM39 -55h150v-150h-150v150z" />
    <glyph glyph-name="endash" unicode="&#x2013;" horiz-adv-x="700" 
d="M39 202v114h627v-114h-627z" />
    <glyph glyph-name="emdash" unicode="&#x2014;" horiz-adv-x="1211" 
d="M39 202v114h1137v-114h-1137z" />
    <glyph glyph-name="quoteleft" unicode="&#x2018;" horiz-adv-x="207" 
d="M32 469v110c0 56 14 89 47 116c25 20 58 32 93 34h5v-53l-4 -1c-53 -9 -76 -33 -76 -76h80v-130h-145z" />
    <glyph glyph-name="quoteright" unicode="&#x2019;" horiz-adv-x="207" 
d="M33 469v55l4 1c53 9 76 33 76 75h-80v129h145v-109c0 -55 -14 -89 -47 -116c-25 -21 -58 -33 -93 -35h-5z" />
    <glyph glyph-name="quotesinglbase" unicode="&#x201a;" horiz-adv-x="213" 
d="M37 -10v135h145v-114c0 -53 -14 -85 -47 -111c-25 -21 -58 -33 -93 -35h-5v55l4 1c53 8 76 30 76 69h-80z" />
    <glyph glyph-name="quotedblleft" unicode="&#x201c;" horiz-adv-x="454" 
d="M32 469v110c0 56 14 89 47 116c25 20 58 32 96 34h6v-53l-5 -1c-56 -9 -79 -33 -79 -76h84v-130h-149zM275 469v110c0 56 16 89 51 116c25 20 58 32 93 34h5v-53l-4 -1c-53 -9 -76 -33 -76 -76h80v-130h-149z" />
    <glyph glyph-name="quotedblright" unicode="&#x201d;" horiz-adv-x="459" 
d="M33 469v55l4 1c53 9 76 33 76 75h-80v129h149v-109c0 -55 -16 -89 -51 -116c-25 -21 -58 -33 -93 -35h-5zM282 469v55l5 1c56 9 79 33 79 75h-84v129h149v-109c0 -55 -14 -89 -47 -116c-25 -21 -58 -33 -96 -35h-6z" />
    <glyph glyph-name="quotedblbase" unicode="&#x201e;" horiz-adv-x="450" 
d="M37 -10v135h145v-114c0 -53 -14 -85 -47 -111c-25 -21 -58 -33 -93 -35h-5v55l4 1c53 8 76 30 76 69h-80zM274 -10v135h145v-114c0 -53 -14 -85 -47 -111c-25 -21 -58 -33 -93 -35h-5v55l4 1c53 8 76 30 76 69h-80z" />
    <glyph glyph-name="dagger" unicode="&#x2020;" horiz-adv-x="570" 
d="M26 364v126h188v219h144v-219h188v-126h-188v-558h-144v558h-188z" />
    <glyph glyph-name="daggerdbl" unicode="&#x2021;" horiz-adv-x="574" 
d="M29 28v125h188v211h-188v126h188v219h144v-219h187v-126h-187v-211h187v-125h-187v-222h-144v222h-188z" />
    <glyph glyph-name="bullet" unicode="&#x2022;" horiz-adv-x="327" 
d="M36 300c0 73 58 130 132 130c70 0 128 -59 128 -130c0 -72 -58 -130 -130 -130s-130 58 -130 130z" />
    <glyph glyph-name="ellipsis" unicode="&#x2026;" horiz-adv-x="948" 
d="M38 -10v156h160v-156h-160zM397 -10v156h160v-156h-160zM756 -10v156h160v-156h-160z" />
    <glyph glyph-name="perthousand" unicode="&#x2030;" horiz-adv-x="1087" 
d="M26 588c0 82 69 151 154 151c87 0 155 -67 155 -152c0 -81 -70 -149 -154 -149c-86 0 -155 68 -155 150zM68 -21l436 759h117l-446 -759h-107zM115 587c0 -35 30 -62 65 -62c36 0 66 28 66 62c0 35 -29 62 -66 62c-35 0 -65 -28 -65 -62zM337 128c0 82 69 151 164 151
c97 0 165 -67 165 -152c0 -82 -70 -149 -164 -149c-96 0 -165 67 -165 150zM426 127c0 -35 35 -62 76 -62c40 0 75 28 75 62c0 35 -33 62 -76 62c-40 0 -75 -28 -75 -62zM735 128c0 82 69 151 164 151c97 0 165 -67 165 -152c0 -82 -70 -149 -164 -149
c-96 0 -165 67 -165 150zM824 127c0 -35 35 -62 76 -62c40 0 75 28 75 62c0 35 -33 62 -76 62c-40 0 -75 -28 -75 -62z" />
    <glyph glyph-name="guilsinglleft" unicode="&#x2039;" horiz-adv-x="244" 
d="M34 216v118l178 154v-126l-98 -87l98 -87v-123z" />
    <glyph glyph-name="guilsinglright" unicode="&#x203a;" horiz-adv-x="244" 
d="M37 65v126l98 87l-98 87v123l177 -151v-119z" />
    <glyph glyph-name="Euro" unicode="&#x20ac;" horiz-adv-x="645" 
d="M23 245l27 78h38c-1 12 -1 20 -1 30s0 18 1 28h-65l27 78h48c38 167 145 265 322 265c86 0 128 -16 200 -69l3 -2l-49 -139c-62 50 -112 70 -165 70c-70 0 -121 -42 -150 -125h294l-27 -78h-287c-2 -14 -2 -23 -2 -36c0 -8 0 -16 1 -22h267l-35 -78h-215
c43 -86 95 -118 159 -118c45 0 76 9 156 51l5 3l47 -131c-71 -47 -169 -64 -214 -64c-168 0 -277 102 -310 259h-75z" />
    <glyph glyph-name="trademark" unicode="&#x2122;" horiz-adv-x="1013" 
d="M30 636v93h401v-93h-149v-322h-118v322h-134zM488 314v415h166l81 -258l77 258h167v-415h-118v220l-62 -210h-130l-63 211v-221h-118z" />
    <glyph glyph-name="greaterequal.slant" unicode="&#x2a7e;" horiz-adv-x="460" 
d="M31 -60l376 295v-141l-376 -297v143zM31 73v139l285 223l-285 219v143l408 -322v-80z" />
    <glyph glyph-name="eturned.sc" unicode="&#xe016;" horiz-adv-x="550" 
d="M29 420v120h486v-545h-472v121h323v85h-301v121h301v98h-337z" />
  </font>
</defs>
</svg>
